<?xml version="1.0" encoding="utf-8"?>
<svg width="92" height="89.672" viewBox="0 0 92 89.672" fill="none" xmlns="http://www.w3.org/2000/svg">
    <path d="M31.582 89.672C33.004 89.06 34 87.646 34 86C34 86 34 75.2 34 75.2C34 74.806 34.032 74.396 34.082 73.98C34.054 73.988 34.028 73.994 34 74C34 74 28 74 26.8 74C23.8 74 21.2 72.8 20 70.4C18.6 67.8 18 63.4 14.4 61C13.8 60.6 14.2 60 15.4 60C16.6 60.2 19.2 61.8 20.8 64C22.6 66.2 24.4 68 27.6 68C32.574 68 35.24 67.75 36.844 66.89C38.712 64.112 41.298 62 44 62C44 62 44 61.95 44 61.95C32.664 61.586 25.422 57.818 22.05 52C14.72 52.084 8.338 52.81 4.696 53.414C4.58 52.76 4.48 52.102 4.394 51.44C7.988 50.848 14.08 50.146 21.084 50.012C20.86 49.46 20.666 48.894 20.502 48.314C13.48 47.958 7.42 48.236 4.128 48.508C4.088 47.844 4.034 47.182 4.026 46.51C7.324 46.24 13.22 45.97 20.062 46.288C19.904 45.288 19.802 44.266 19.802 43.202C19.802 39.802 21.002 36.202 23.202 33.202C22.202 29.802 20.802 22.602 23.602 20.002C29.002 20.002 32.802 22.602 34.602 24.202C38 22.8 41.8 22 46 22C50.2 22 54 22.8 57.2 24.2C59 22.6 62.8 20 68.2 20C71.2 22.8 69.6 30 68.6 33.2C70.8 36.2 72 39.6 71.8 43.2C71.8 44.168 71.71 45.102 71.58 46.018C78.578 45.674 84.634 45.95 87.988 46.222C87.984 46.896 87.922 47.554 87.886 48.22C84.544 47.944 78.336 47.66 71.168 48.042C70.99 48.714 70.774 49.368 70.518 50.002C77.61 50.094 83.848 50.78 87.614 51.38C87.528 52.044 87.428 52.702 87.312 53.354C83.488 52.742 76.97 52.026 69.554 51.99C66.224 57.746 59.114 61.5 48 61.938C48 61.938 48 62 48 62C53.2 62 58 69.8 58 75.2C58 75.2 58 86 58 86C58 87.646 58.996 89.06 60.418 89.672C78.74 83.608 92 66.328 92 46C92 20.636 71.366 0 46 0C20.634 0 0 20.636 0 46C0 66.328 13.26 83.608 31.582 89.672C31.582 89.672 31.582 89.672 31.582 89.672Z" fill="#303F9F" transform="translate(0 0)" />
</svg>