<?xml version="1.0" encoding="utf-8"?>
<svg width="50" height="50" viewBox="0 0 50 50" fill="none" xmlns="http://www.w3.org/2000/svg">
  <g transform="translate(0 0)">
    <rect width="50" height="50" />
    <path id="Shape" d="M23 0C10.3113 0 0 10.3113 0 23C0 35.6887 10.3113 46 23 46C35.6887 46 46 35.6887 46 23C46 10.3113 35.6887 0 23 0C23 0 23 0 23 0ZM23 2C34.6073 2 44 11.3927 44 23C44 23.0714 43.9949 23.1417 43.9941 23.2129C43.3545 23.1539 42.6155 23.0978 41.6758 23.0645C40.3471 23.0173 38.6723 23.031 36.7734 23.125C36.8439 22.6347 36.8932 22.1374 36.8945 21.627C36.9914 19.7543 36.3625 18.0025 35.3398 16.4551C35.5869 15.6014 35.8767 14.5152 35.9492 13.2832C36.0318 11.8789 35.9106 10.3218 34.7832 9.26953C34.7832 9.26953 34.4941 9 34.4941 9C34.4941 9 34.0996 9 34.0996 9C31.4165 9 29.58 10.1232 28.457 11.0137C26.8355 10.386 25.0122 10 23 10C20.9764 10 19.1355 10.3914 17.4473 11.0176C16.3249 10.1267 14.4868 9 11.8008 9C11.8008 9 11.4082 9 11.4082 9C11.4082 9 11.1191 9.26758 11.1191 9.26758C10.021 10.2873 9.91978 11.8018 9.98828 13.1992C10.0487 14.4315 10.3217 15.5521 10.5645 16.4473C9.52449 18.0249 8.90039 19.822 8.90039 21.5996C8.90039 22.1112 8.94797 22.6101 9.01758 23.1016C7.21182 23.0178 5.6021 23.0017 4.32422 23.0469C3.38451 23.0801 2.64544 23.1357 2.00586 23.1953C2.00526 23.13 2 23.0655 2 23C2 11.3927 11.3927 2 23 2C23 2 23 2 23 2ZM12.3965 11.1309C14.4141 11.322 15.932 12.223 16.6348 12.8477C16.6348 12.8477 17.1035 13.2617 17.1035 13.2617C17.1035 13.2617 17.6816 13.0254 17.6816 13.0254C19.2631 12.3742 21.027 12 23 12C24.973 12 26.7374 12.3761 28.1992 13.0156C28.1992 13.0156 28.7852 13.2734 28.7852 13.2734C28.7852 13.2734 29.2637 12.8477 29.2637 12.8477C29.9667 12.2228 31.4872 11.3216 33.5059 11.1309C33.7743 11.5758 34.0075 12.2087 33.9512 13.166C33.8838 14.3117 33.5773 15.5597 33.3457 16.3008C33.3457 16.3008 33.1953 16.7832 33.1953 16.7832C33.1953 16.7832 33.4941 17.1914 33.4941 17.1914C34.4836 18.5407 34.9881 20.0009 34.9023 21.5449C34.9023 21.5449 34.9004 21.5723 34.9004 21.5723C34.9004 21.5723 34.9004 21.5996 34.9004 21.5996C34.9004 24.0951 34.0018 26.0923 32.0879 27.5723C30.174 29.0522 27.1527 30 22.9004 30C18.6481 30 15.6248 29.0522 13.7109 27.5723C11.797 26.0923 10.9004 24.0951 10.9004 21.5996C10.9004 20.1349 11.4293 18.5236 12.4063 17.1914C12.4063 17.1914 12.6992 16.793 12.6992 16.793C12.6992 16.793 12.5586 16.3184 12.5586 16.3184C12.3269 15.5305 12.0428 14.2541 11.9863 13.1016C11.9393 12.1429 12.1662 11.537 12.3965 11.1309C12.3965 11.1309 12.3965 11.1309 12.3965 11.1309ZM6.88477 24.0215C7.59146 24.0305 8.40146 24.0686 9.21289 24.1093C9.29042 24.4211 9.37882 24.7279 9.48633 25.0273C6.17897 25.0971 3.70473 25.4296 2.17969 25.7148C2.11521 25.2145 2.06385 24.71 2.03516 24.1992C3.16221 24.0922 4.751 23.9942 6.88477 24.0215C6.88477 24.0215 6.88477 24.0215 6.88477 24.0215ZM39.1152 24.037C41.2475 24.0099 42.8357 24.1081 43.9629 24.2148C43.9342 24.7182 43.8837 25.2156 43.8203 25.7089C42.2408 25.4191 39.6997 25.0866 36.3066 25.0331C36.4119 24.7396 36.4996 24.4381 36.5762 24.1327C37.4713 24.0847 38.3446 24.0468 39.1152 24.037C39.1152 24.037 39.1152 24.037 39.1152 24.037ZM9.91211 26.0195C10.5088 27.2153 11.3615 28.283 12.4883 29.1543C14.0288 30.3455 16.0316 31.1778 18.4766 31.623C18.1567 31.9517 17.8658 32.3126 17.6074 32.6934C17.6074 32.6934 17.5469 32.6406 17.5469 32.6406C17.5524 32.6343 17.0497 32.8859 16.2988 32.9531C15.5479 33.0204 14.6216 33 13.8008 33C12.5758 33 12.0362 32.4212 11.1738 31.3672C10.6963 30.7236 10.1141 30.2023 9.54883 29.8066C8.97002 29.4015 8.47626 29.1155 7.86523 29.0137C7.86523 29.0137 7.7832 29 7.7832 29C7.7832 29 7.69922 29 7.69922 29C7.23255 29 6.78098 29.0338 6.35938 29.5156C6.14857 29.7565 6.00328 30.2026 6.09766 30.5801C6.19204 30.9576 6.43086 31.1896 6.64453 31.332C8.01125 32.2432 8.2528 34.0465 9.10938 35.6504C9.9093 37.2443 11.6357 38 13.4004 38C13.4004 38 16 38 16 38C16 38 16 42.8027 16 42.8027C8.96781 40.3205 3.66468 34.2046 2.33203 26.7031C3.86293 26.4148 6.42654 26.0681 9.91211 26.0195C9.91211 26.0195 9.91211 26.0195 9.91211 26.0195ZM35.8828 26.0273C39.4455 26.0578 42.0811 26.4041 43.6699 26.6973C42.339 34.2015 37.0341 40.3199 30 42.8027C30 42.8027 30 37.5996 30 37.5996C30 36.015 29.4796 34.2677 28.5742 32.8105C28.2993 32.3681 27.9759 31.9497 27.6152 31.5742C29.9305 31.1168 31.8324 30.2988 33.3125 29.1543C34.4368 28.2849 35.2876 27.2204 35.8828 26.0273C35.8828 26.0273 35.8828 26.0273 35.8828 26.0273ZM21.6992 32.0996C21.6992 32.0996 24.5 32.0996 24.5 32.0996C25.3128 32.0996 26.1804 32.7474 26.875 33.8652C27.5696 34.9831 28 36.4842 28 37.5996C28 37.5996 28 43.3984 28 43.3984C26.3974 43.7892 24.7238 44 23 44C21.2762 44 19.6026 43.7892 18 43.3984C18 43.3984 18 37.5996 18 37.5996C18 36.5089 18.4678 35.0113 19.209 33.8887C19.9501 32.766 20.8864 32.0996 21.6992 32.0996C21.6992 32.0996 21.6992 32.0996 21.6992 32.0996ZM10.3086 33.2813C11.1744 34.1793 12.2225 35 13.8008 35C14.5799 35 15.5525 35.0281 16.4766 34.9453C16.4798 34.945 16.483 34.9437 16.4863 34.9434C16.3646 35.2934 16.2737 35.6455 16.1973 36C16.1973 36 13.4004 36 13.4004 36C12.1671 36 11.2958 35.5544 10.8945 34.752C10.8945 34.752 10.8867 34.7383 10.8867 34.7383C10.8867 34.7383 10.8809 34.7266 10.8809 34.7266C10.7165 34.4212 10.5006 33.8106 10.3086 33.2813C10.3086 33.2813 10.3086 33.2813 10.3086 33.2813Z" fill="#FFFFFF" transform="translate(2 2)" />
  </g>
</svg>
