<?xml version="1.0" encoding="utf-8"?>
<svg width="105.625" height="113.254" viewBox="0 0 105.625 113.254" fill="none" xmlns="http://www.w3.org/2000/svg">
  <path id="Shape" d="M14.2188 0C6.3948 0 0 6.85665 0 15.2457C0 15.2457 0 98.0079 0 98.0079C0 106.397 6.3948 113.254 14.2188 113.254C14.2188 113.254 91.4063 113.254 91.4063 113.254C99.2302 113.254 105.625 106.397 105.625 98.0079C105.625 98.0079 105.625 15.2457 105.625 15.2457C105.625 6.85665 99.2302 0 91.4063 0C91.4063 0 14.2188 0 14.2188 0C14.2188 0 14.2188 0 14.2188 0ZM14.2188 4.3559C14.2188 4.3559 91.4063 4.3559 91.4063 4.3559C97.0292 4.3559 101.563 9.21664 101.563 15.2457C101.563 15.2457 101.563 98.0079 101.563 98.0079C101.563 104.037 97.0292 108.898 91.4063 108.898C91.4063 108.898 14.2188 108.898 14.2188 108.898C8.59583 108.898 4.0625 104.037 4.0625 98.0079C4.0625 98.0079 4.0625 15.2457 4.0625 15.2457C4.0625 9.21664 8.59583 4.3559 14.2188 4.3559C14.2188 4.3559 14.2188 4.3559 14.2188 4.3559ZM20.3125 23.9575C16.9712 23.9575 14.2188 26.9086 14.2188 30.4913C14.2188 30.4913 14.2188 69.6945 14.2188 69.6945C14.2188 73.2771 16.9712 76.2283 20.3125 76.2283C20.3125 76.2283 85.3125 76.2283 85.3125 76.2283C88.6539 76.2283 91.4063 73.2771 91.4063 69.6945C91.4063 69.6945 91.4063 30.4913 91.4063 30.4913C91.4063 26.9086 88.6539 23.9575 85.3125 23.9575C85.3125 23.9575 20.3125 23.9575 20.3125 23.9575C20.3125 23.9575 20.3125 23.9575 20.3125 23.9575ZM21.1538 28.3134L84.4717 28.3134C84.4717 28.3134 65.8334 48.2978 65.8334 48.2978C65.6528 48.4365 65.4947 48.6061 65.3652 48.7997C65.3652 48.7997 58.5574 56.0993 58.5574 56.0993C55.3662 59.5209 50.2593 59.5209 47.0681 56.0993C47.0681 56.0993 40.2682 48.8082 40.2682 48.8082C40.1388 48.6146 39.9807 48.445 39.8001 48.3063C39.8001 48.3063 21.1538 28.3134 21.1538 28.3134L21.1538 28.3134ZM18.2813 31.3931L35.7214 50.0929L18.2813 68.7927L18.2813 31.3931L18.2813 31.3931ZM87.344 31.3931L87.344 68.7927L69.9038 50.0929L87.344 31.3931L87.344 31.3931ZM38.594 53.1727C38.594 53.1727 44.1958 59.179 44.1958 59.179C48.9387 64.2645 56.6868 64.2645 61.4297 59.179C61.4297 59.179 67.0315 53.1727 67.0315 53.1727L84.4717 71.8724L21.1538 71.8724L38.594 53.1727L38.594 53.1727ZM12.1875 91.474C11.0662 91.474 10.1563 92.4497 10.1563 93.6519C10.1563 93.6519 10.1563 98.0079 10.1563 98.0079C10.1563 99.2101 11.0662 100.186 12.1875 100.186C13.3088 100.186 14.2188 99.2101 14.2188 98.0079C14.2188 98.0079 14.2188 93.6519 14.2188 93.6519C14.2188 92.4497 13.3088 91.474 12.1875 91.474C12.1875 91.474 12.1875 91.474 12.1875 91.474ZM22.3438 91.474C21.2225 91.474 20.3125 92.4497 20.3125 93.6519C20.3125 93.6519 20.3125 98.0079 20.3125 98.0079C20.3125 99.2101 21.2225 100.186 22.3438 100.186C23.465 100.186 24.375 99.2101 24.375 98.0079C24.375 98.0079 24.375 93.6519 24.375 93.6519C24.375 92.4497 23.465 91.474 22.3438 91.474C22.3438 91.474 22.3438 91.474 22.3438 91.474ZM32.5 91.474C31.3787 91.474 30.4688 92.4497 30.4688 93.6519C30.4688 93.6519 30.4688 98.0079 30.4688 98.0079C30.4688 99.2101 31.3787 100.186 32.5 100.186C33.6213 100.186 34.5313 99.2101 34.5313 98.0079C34.5313 98.0079 34.5313 93.6519 34.5313 93.6519C34.5313 92.4497 33.6213 91.474 32.5 91.474C32.5 91.474 32.5 91.474 32.5 91.474ZM42.6563 91.474C41.535 91.474 40.625 92.4497 40.625 93.6519C40.625 93.6519 40.625 98.0079 40.625 98.0079C40.625 99.2101 41.535 100.186 42.6563 100.186C43.7775 100.186 44.6875 99.2101 44.6875 98.0079C44.6875 98.0079 44.6875 93.6519 44.6875 93.6519C44.6875 92.4497 43.7775 91.474 42.6563 91.474C42.6563 91.474 42.6563 91.474 42.6563 91.474ZM52.8125 91.474C51.6912 91.474 50.7813 92.4497 50.7813 93.6519C50.7813 93.6519 50.7813 98.0079 50.7813 98.0079C50.7813 99.2101 51.6912 100.186 52.8125 100.186C53.9337 100.186 54.8438 99.2101 54.8438 98.0079C54.8438 98.0079 54.8438 93.6519 54.8438 93.6519C54.8438 92.4497 53.9337 91.474 52.8125 91.474C52.8125 91.474 52.8125 91.474 52.8125 91.474ZM62.9688 91.474C61.8475 91.474 60.9375 92.4497 60.9375 93.6519C60.9375 93.6519 60.9375 98.0079 60.9375 98.0079C60.9375 99.2101 61.8475 100.186 62.9688 100.186C64.09 100.186 65 99.2101 65 98.0079C65 98.0079 65 93.6519 65 93.6519C65 92.4497 64.09 91.474 62.9688 91.474C62.9688 91.474 62.9688 91.474 62.9688 91.474ZM73.125 91.474C72.0038 91.474 71.0938 92.4497 71.0938 93.6519C71.0938 93.6519 71.0938 98.0079 71.0938 98.0079C71.0938 99.2101 72.0038 100.186 73.125 100.186C74.2462 100.186 75.1563 99.2101 75.1563 98.0079C75.1563 98.0079 75.1563 93.6519 75.1563 93.6519C75.1563 92.4497 74.2462 91.474 73.125 91.474C73.125 91.474 73.125 91.474 73.125 91.474ZM83.2813 91.474C82.16 91.474 81.25 92.4497 81.25 93.6519C81.25 93.6519 81.25 98.0079 81.25 98.0079C81.25 99.2101 82.16 100.186 83.2813 100.186C84.4025 100.186 85.3125 99.2101 85.3125 98.0079C85.3125 98.0079 85.3125 93.6519 85.3125 93.6519C85.3125 92.4497 84.4025 91.474 83.2813 91.474C83.2813 91.474 83.2813 91.474 83.2813 91.474ZM93.4375 91.474C92.3163 91.474 91.4063 92.4497 91.4063 93.6519C91.4063 93.6519 91.4063 98.0079 91.4063 98.0079C91.4063 99.2101 92.3163 100.186 93.4375 100.186C94.5587 100.186 95.4688 99.2101 95.4688 98.0079C95.4688 98.0079 95.4688 93.6519 95.4688 93.6519C95.4688 92.4497 94.5587 91.474 93.4375 91.474C93.4375 91.474 93.4375 91.474 93.4375 91.474Z" fill="#FFFFFF" />
</svg>