<?xml version="1.0" encoding="utf-8"?>
<svg width="42" height="42" viewBox="0 0 42 42" fill="none" xmlns="http://www.w3.org/2000/svg">
    <path d="M10 0C4.48867 0 0 4.48867 0 10C0 10 0 32 0 32C0 37.5113 4.48867 42 10 42C10 42 32 42 32 42C37.5113 42 42 37.5113 42 32C42 32 42 10 42 10C42 4.48867 37.5113 0 32 0C32 0 10 0 10 0C10 0 10 0 10 0ZM9 12C9 12 33 12 33 12C33.18 12 33.3498 12.0203 33.5098 12.0703C33.5098 12.0703 23.6797 21.8906 23.6797 21.8906C22.1997 23.3706 19.7905 23.3706 18.3105 21.8906C18.3105 21.8906 8.49023 12.0703 8.49023 12.0703C8.65023 12.0203 8.82 12 9 12C9 12 9 12 9 12ZM7.07031 13.4902L14.5898 21C14.5898 21 7.07031 28.5098 7.07031 28.5098C7.02031 28.3498 7 28.18 7 28C7 28 7 14 7 14C7 13.82 7.02031 13.6502 7.07031 13.4902C7.07031 13.4902 7.07031 13.4902 7.07031 13.4902ZM34.9297 13.4902C34.9797 13.6502 35 13.82 35 14C35 14 35 28 35 28C35 28.18 34.9797 28.3498 34.9297 28.5098C34.9297 28.5098 27.4004 21 27.4004 21L34.9297 13.4902C34.9297 13.4902 34.9297 13.4902 34.9297 13.4902ZM16 22.4102C16 22.4102 16.8906 23.3105 16.8906 23.3105C18.0206 24.4405 19.5102 25 20.9902 25C22.4802 25 23.9598 24.4405 25.0898 23.3105C25.0898 23.3105 25.9902 22.4102 25.9902 22.4102C25.9902 22.4102 33.5098 29.9297 33.5098 29.9297C33.3498 29.9797 33.18 30 33 30C33 30 9 30 9 30C8.82 30 8.65023 29.9797 8.49023 29.9297C8.49023 29.9297 16 22.4102 16 22.4102L16 22.4102Z" fill="#FFFFFF" />
</svg>