<?xml version="1.0" encoding="utf-8"?>
<svg width="42" height="42" viewBox="0 0 42 42" fill="none" xmlns="http://www.w3.org/2000/svg">
    <path d="M10 0C4.48867 0 0 4.48867 0 10C0 10 0 32 0 32C0 37.5113 4.48867 42 10 42C10 42 32 42 32 42C37.5113 42 42 37.5113 42 32C42 32 42 10 42 10C42 4.48867 37.5113 0 32 0C32 0 10 0 10 0C10 0 10 0 10 0ZM14.0059 8.04297C14.6339 8.06997 15.2106 8.4238 15.5586 8.9668C15.9546 9.5848 16.5691 10.5439 17.3691 11.7949C18.0991 12.9359 18.15 14.4096 17.498 15.5996C17.498 15.5996 16.0332 17.6836 16.0332 17.6836C15.6372 18.2476 15.5582 18.9695 15.8242 19.6055C16.2382 20.5955 17.0408 22.117 18.4668 23.543C19.8928 24.969 21.4143 25.7715 22.4043 26.1855C23.0403 26.4515 23.7622 26.3726 24.3262 25.9766C24.3262 25.9766 26.4102 24.5117 26.4102 24.5117C27.6002 23.8597 29.0738 23.9116 30.2148 24.6406C31.4658 25.4406 32.425 26.0552 33.043 26.4512C33.586 26.7992 33.9398 27.3759 33.9668 28.0039C34.1208 31.5679 31.3596 33.0117 30.5566 33.0117C30.0006 33.0117 23.3163 33.7714 15.7773 26.2324C8.23834 18.6934 8.99805 12.0091 8.99805 11.4531C8.99805 10.6501 10.4419 7.88897 14.0059 8.04297C14.0059 8.04297 14.0059 8.04297 14.0059 8.04297Z" fill="#FFFFFF" />
</svg>