<?xml version="1.0" encoding="utf-8"?>
<svg width="109.2" height="117.087" viewBox="0 0 109.2 117.087" fill="none" xmlns="http://www.w3.org/2000/svg">
  <path id="Shape" d="M26 0C11.6705 0 0 12.5134 0 27.8778C0 27.8778 0 89.2089 0 89.2089C0 104.573 11.6705 117.087 26 117.087C26 117.087 83.2001 117.087 83.2001 117.087C97.5295 117.087 109.2 104.573 109.2 89.2089C109.2 89.2089 109.2 27.8778 109.2 27.8778C109.2 12.5134 97.5295 0 83.2001 0C83.2001 0 26 0 26 0C26 0 26 0 26 0ZM26.0002 5.57556C26.0002 5.57556 83.2003 5.57556 83.2003 5.57556C94.72 5.57556 104 15.5261 104 27.8778C104 27.8778 104 89.2089 104 89.2089C104 101.561 94.72 111.511 83.2003 111.511C83.2003 111.511 26.0002 111.511 26.0002 111.511C14.4805 111.511 5.2002 101.561 5.2002 89.2089C5.2002 89.2089 5.2002 27.8778 5.2002 27.8778C5.2002 15.5261 14.4805 5.57556 26.0002 5.57556C26.0002 5.57556 26.0002 5.57556 26.0002 5.57556ZM36.5269 19.6397C31.209 19.3934 27.1728 21.5599 24.6339 24.1644C23.3644 25.4667 22.4479 26.8602 21.8206 28.161C21.1933 29.4618 20.7948 30.5342 20.7948 31.9288C20.7948 31.8046 20.7663 32.4566 20.7491 33.2138C20.732 33.971 20.7351 34.9917 20.7999 36.2248C20.9298 38.6911 21.3196 42.0271 22.3538 45.9821C24.4222 53.8921 29.0795 64.2683 39.1827 75.1013C49.286 85.9342 58.9628 90.9272 66.3406 93.1456C70.0295 94.2548 73.1402 94.6722 75.4406 94.8117C76.5907 94.8815 77.5374 94.8845 78.2437 94.8662C78.95 94.8478 79.5627 94.8172 79.4472 94.8172C80.7479 94.8172 81.7481 94.3899 82.9613 93.7173C84.1745 93.0448 85.4741 92.062 86.6886 90.7009C89.1178 87.9785 91.1383 83.6508 90.9086 77.9489C90.7995 75.2295 89.3914 72.8214 87.3132 71.3933C85.7073 70.2899 83.2141 68.5771 79.9601 66.3459C76.1847 63.7595 71.3557 63.5748 67.4171 65.8885C67.4171 65.8885 67.6406 65.7688 67.6406 65.7688L64.5785 67.179C64.5785 67.179 64.355 67.3478 64.355 67.3478C63.6107 67.9081 62.6889 68.0119 61.8515 67.6363C59.5056 66.5845 55.8505 64.5179 52.4519 60.8738C49.0533 57.2297 47.1258 53.3106 46.1448 50.7953C45.7946 49.8974 45.8914 48.909 46.414 48.111C46.414 48.111 46.5714 47.8714 46.5714 47.8714L47.8866 44.5882C47.8866 44.5882 47.7749 44.8278 47.7749 44.8278C49.9323 40.6058 49.7646 35.4282 47.3484 31.3789C45.2674 27.8899 43.67 25.2167 42.6409 23.4947C41.3091 21.2665 39.0631 19.7567 36.5269 19.6397C36.5269 19.6397 36.5269 19.6397 36.5269 19.6397ZM36.303 25.2097C37.0324 25.2433 37.7854 25.7008 38.2632 26.5001C39.2933 28.2239 40.8915 30.8984 42.9706 34.3843C44.3504 36.6967 44.4474 39.7358 43.2144 42.1487C43.2144 42.1487 43.1534 42.2685 43.1534 42.2685L41.8991 45.4102C41.8991 45.4102 42.1581 44.9038 42.1581 44.9038C40.6215 47.2504 40.3127 50.2978 41.3456 52.9459C42.5174 55.9505 44.7583 60.5091 48.7749 64.8158C52.7915 69.1225 57.0431 71.5252 59.8452 72.7816C62.315 73.8892 65.1571 73.5581 67.3456 71.9105C67.3456 71.9105 66.8734 72.1882 66.8734 72.1882L69.8034 70.8433C69.8034 70.8433 69.9151 70.7779 69.9151 70.7779C72.1646 69.4564 74.9988 69.5665 77.1566 71.0447C77.1566 71.0447 77.1566 71.0393 77.1566 71.0393C80.4077 73.2685 82.902 74.9822 84.5097 76.0867C85.2551 76.599 85.6818 77.4064 85.7132 78.1884C85.8838 82.4221 84.5124 85.0728 82.9304 86.8458C82.1394 87.7323 81.2816 88.3756 80.5741 88.7678C79.8667 89.16 79.19 89.2415 79.4468 89.2415C78.9699 89.2415 78.7188 89.2751 78.1214 89.2905C77.524 89.3061 76.7233 89.307 75.7347 89.247C73.7574 89.127 71.0283 88.7651 67.7417 87.7769C61.1685 85.8004 52.357 81.3432 42.8589 71.1591C33.3608 60.9749 29.2032 51.5262 27.3605 44.4791C26.4391 40.9556 26.101 38.0286 25.9894 35.9089C25.9335 34.849 25.9343 33.9903 25.9487 33.3498C25.9633 32.7094 25.9944 32.4404 25.9944 31.9287C25.9944 32.204 26.0705 31.4785 26.4362 30.7199C26.802 29.9614 27.4021 29.0416 28.2288 28.1935C29.8824 26.4972 32.3545 25.0268 36.303 25.2097C36.303 25.2097 36.303 25.2097 36.303 25.2097Z" fill="#FFFFFF" />
</svg>