<?xml version="1.0" encoding="utf-8"?>
<svg width="50" height="50" viewBox="0 0 50 50" fill="none" xmlns="http://www.w3.org/2000/svg">
  <g>
    <rect width="50" height="50" />
    <path id="Shape" d="M27.0322 0C26.0947 0 25.1963 0.382813 24.5322 1C23.8682 1.61719 23.3955 2.43359 23.0322 3.40625C22.3877 5.14063 22.1182 7.39453 22.0635 10.0313C17.2666 10.1797 12.8525 11.4219 9.31348 13.4688C8.24707 12.4688 6.8877 11.9688 5.53223 11.9688C4.12207 11.9688 2.70801 12.5117 1.62598 13.5938C-0.541992 15.7617 -0.541992 19.2383 1.62598 21.4063C1.62598 21.4063 1.87598 21.6563 1.87598 21.6563C1.34473 23.0352 1.03223 24.4883 1.03223 26C1.03223 30.5273 3.59863 34.5859 7.59473 37.4375C11.5908 40.2891 17.04 42 23.0322 42C29.0244 42 34.4736 40.2891 38.4697 37.4375C42.4658 34.5859 45.0322 30.5273 45.0322 26C45.0322 24.4883 44.7197 23.0352 44.1885 21.6563C44.1885 21.6563 44.4385 21.4063 44.4385 21.4063C46.6064 19.2383 46.6064 15.7617 44.4385 13.5938C43.3564 12.5117 41.9424 11.9688 40.5322 11.9688C39.1768 11.9688 37.8174 12.4688 36.751 13.4688C33.2275 11.4336 28.833 10.1914 24.0635 10.0313C24.126 7.54688 24.3955 5.46875 24.9072 4.09375C25.1963 3.31641 25.5596 2.75781 25.9072 2.4375C26.2549 2.11719 26.5713 2 27.0322 2C27.4932 2 27.7158 2.125 28.0635 2.40625C28.4111 2.6875 28.8174 3.14844 29.3447 3.6875C30.2861 4.65235 31.7275 5.71485 34.126 5.9375C34.5713 8.23828 36.6064 10 39.0322 10C41.7822 10 44.0322 7.75 44.0322 5C44.0322 2.25 41.7822 0 39.0322 0C36.6377 0 34.6064 1.71094 34.126 3.96875C32.3447 3.79688 31.5596 3.10938 30.7822 2.3125C30.333 1.85156 29.9189 1.3125 29.3447 0.84375C28.7705 0.375 27.9697 0 27.0322 0C27.0322 0 27.0322 0 27.0322 0ZM39.0323 2.00024C40.7003 2.00024 42.0323 3.33227 42.0323 5.00024C42.0323 6.66821 40.7003 8.00025 39.0323 8.00025C37.3644 8.00025 36.0323 6.66821 36.0323 5.00024C36.0323 3.33227 37.3644 2.00024 39.0323 2.00024C39.0323 2.00024 39.0323 2.00024 39.0323 2.00024ZM23.0322 12C28.6416 12 33.708 13.6133 37.3135 16.1875C40.9189 18.7617 43.0322 22.2266 43.0322 26C43.0322 29.7734 40.9189 33.2383 37.3135 35.8125C33.708 38.3867 28.6416 40 23.0322 40C17.4228 40 12.3564 38.3867 8.75098 35.8125C5.14551 33.2383 3.03223 29.7734 3.03223 26C3.03223 22.2266 5.14551 18.7617 8.75098 16.1875C12.3564 13.6133 17.4228 12 23.0322 12C23.0322 12 23.0322 12 23.0322 12ZM5.53222 13.9373C6.23535 13.9373 6.94629 14.1482 7.56347 14.5935C5.55957 16.031 3.91894 17.7693 2.78222 19.7185C1.61425 18.2966 1.69238 16.3396 3.03222 14.9998C3.74707 14.2849 4.6416 13.9373 5.53222 13.9373C5.53222 13.9373 5.53222 13.9373 5.53222 13.9373ZM40.5322 13.9373C41.4229 13.9373 42.3174 14.2849 43.0322 14.9998C44.3721 16.3396 44.4502 18.2966 43.2822 19.7185C42.1455 17.7693 40.5049 16.031 38.501 14.5935C39.1182 14.1482 39.8291 13.9373 40.5322 13.9373C40.5322 13.9373 40.5322 13.9373 40.5322 13.9373ZM15.0323 19.0005C12.8331 19.0005 11.0323 20.8013 11.0323 23.0005C11.0323 25.1997 12.8331 27.0005 15.0323 27.0005C17.2316 27.0005 19.0323 25.1997 19.0323 23.0005C19.0323 20.8013 17.2316 19.0005 15.0323 19.0005C15.0323 19.0005 15.0323 19.0005 15.0323 19.0005ZM31.0322 19.0005C28.833 19.0005 27.0322 20.8013 27.0322 23.0005C27.0322 25.1997 28.833 27.0005 31.0322 27.0005C33.2314 27.0005 35.0322 25.1997 35.0322 23.0005C35.0322 20.8013 33.2314 19.0005 31.0322 19.0005C31.0322 19.0005 31.0322 19.0005 31.0322 19.0005ZM15.0322 20.9998C16.1494 20.9998 17.0322 21.8826 17.0322 22.9998C17.0322 24.1169 16.1494 24.9998 15.0322 24.9998C13.915 24.9998 13.0322 24.1169 13.0322 22.9998C13.0322 21.8826 13.915 20.9998 15.0322 20.9998C15.0322 20.9998 15.0322 20.9998 15.0322 20.9998ZM31.0323 20.9998C32.1495 20.9998 33.0323 21.8826 33.0323 22.9998C33.0323 24.1169 32.1495 24.9998 31.0323 24.9998C29.9152 24.9998 29.0323 24.1169 29.0323 22.9998C29.0323 21.8826 29.9152 20.9998 31.0323 20.9998C31.0323 20.9998 31.0323 20.9998 31.0323 20.9998ZM32.1885 30.8441C32.1338 30.8519 32.083 30.8597 32.0322 30.8754C31.7158 30.9379 31.4502 31.1449 31.3135 31.4379C31.3135 31.4379 30.79 32.1644 29.4697 33.0004C28.1494 33.8363 26.0908 34.6879 23.0322 34.6879C19.9736 34.6879 17.915 33.8363 16.5947 33.0004C15.2744 32.1644 14.751 31.4379 14.751 31.4379C14.5244 31.0824 14.0986 30.9066 13.6885 31.0004C13.3643 31.0824 13.1025 31.3168 12.9893 31.6332C12.876 31.9457 12.9268 32.2933 13.126 32.5629C13.126 32.5629 13.8955 33.6722 15.501 34.6879C17.1064 35.7035 19.5908 36.6879 23.0322 36.6879C26.4736 36.6879 28.958 35.7035 30.5635 34.6879C32.1689 33.6722 32.9385 32.5629 32.9385 32.5629C33.2393 32.2738 33.3291 31.8246 33.1611 31.4418C32.9932 31.059 32.6064 30.8207 32.1885 30.8441C32.1885 30.8441 32.1885 30.8441 32.1885 30.8441Z" fill="#FFFFFF" transform="translate(2.174 4.348)" />
  </g>
</svg>
