<?xml version="1.0" encoding="utf-8"?>
<svg width="92" height="92" viewBox="0 0 92 92" fill="none" xmlns="http://www.w3.org/2000/svg">
    <path d="M46 0C71.406 0 92 20.594 92 46C92 71.406 71.406 92 46 92C20.594 92 0 71.406 0 46C0 20.594 20.594 0 46 0C46 0 46 0 46 0ZM61.8681 64.7501C62.7141 62.1541 66.6781 36.2821 67.1681 31.1841C67.3161 29.6401 66.8281 28.6141 65.8721 28.1561C64.7161 27.6001 63.0041 27.8781 61.0181 28.5941C58.2941 29.5761 23.4701 44.3621 21.4581 45.2181C19.5501 46.0281 17.7461 46.9121 17.7461 48.1921C17.7461 49.0921 18.2801 49.5981 19.7521 50.1241C21.2841 50.6701 25.1421 51.8401 27.4201 52.4681C29.6141 53.0741 32.1121 52.5481 33.5121 51.6781C34.9961 50.7561 52.1221 39.2961 53.3521 38.2921C54.5801 37.2881 55.5601 38.5741 54.5561 39.5801C53.5521 40.5841 41.7961 51.9941 40.2461 53.5741C38.3641 55.4921 39.7001 57.4801 40.9621 58.2761C42.4041 59.1841 52.7741 66.1401 54.3361 67.2561C55.8981 68.3721 57.4821 68.8781 58.9321 68.8781C60.3821 68.8781 61.1461 66.9681 61.8681 64.7501C61.8681 64.7501 61.8681 64.7501 61.8681 64.7501Z" fill="#303F9F" />
</svg>