<?xml version="1.0" encoding="utf-8"?>
<svg width="50" height="50" viewBox="0 0 50 50" fill="none" xmlns="http://www.w3.org/2000/svg">
  <g>
    <rect width="50" height="50"/>
    <path id="Shape"
          d="M23 0C10.3093 0 0 10.3093 0 23C0 35.6907 10.3093 46 23 46C35.6907 46 46 35.6907 46 23C46 10.3093 35.6907 0 23 0C23 0 23 0 23 0ZM23 2.00015C34.6098 2.00015 44 11.3903 44 23.0002C44 34.61 34.6098 44.0002 23 44.0002C11.3902 44.0002 2 34.61 2 23.0002C2 11.3903 11.3902 2.00015 23 2.00015C23 2.00015 23 2.00015 23 2.00015ZM32.0879 12.0349C31.4039 12.0349 30.6353 12.1933 29.7363 12.5173C28.3403 13.0203 11.9207 19.9919 10.0527 20.7849C8.98473 21.2389 6.99609 22.0834 6.99609 24.0974C6.99609 25.4324 7.77836 26.3872 9.31836 26.9372C10.1464 27.2322 12.1129 27.8283 13.2539 28.1423C13.7379 28.2753 14.2523 28.3435 14.7813 28.3435C15.8163 28.3435 16.8578 28.0856 17.6738 27.6306C17.6668 27.7986 17.6714 27.9684 17.6914 28.1384C17.8144 29.1884 18.4619 30.176 19.4219 30.781C20.0499 31.177 25.1793 34.6139 25.9453 35.1599C27.0213 35.9289 28.2108 36.3357 29.3828 36.3357C31.6228 36.3357 32.3743 34.0228 32.7363 32.9118C33.2613 31.2988 35.2272 18.1819 35.4492 15.8689C35.6002 14.2839 34.9396 12.9787 33.6816 12.3767C33.2106 12.1497 32.6729 12.0349 32.0879 12.0349C32.0879 12.0349 32.0879 12.0349 32.0879 12.0349ZM32.0879 14.035C32.3629 14.035 32.6084 14.0805 32.8164 14.1815C33.2894 14.4085 33.53 14.9146 33.457 15.6796C33.215 18.2026 31.2539 31.0089 30.8359 32.2929C30.4779 33.3909 30.1008 34.3358 29.3828 34.3358C28.6648 34.3358 27.8804 34.0841 27.1074 33.5311C26.3344 32.9791 21.2013 29.5368 20.4883 29.0878C19.8633 28.6938 19.2018 27.7116 20.1328 26.7616C20.8998 25.9796 26.7178 20.3328 27.2149 19.8358C27.5849 19.4648 27.4118 19.0175 27.0488 19.0175C26.9238 19.0175 26.7741 19.0702 26.6191 19.1972C26.0111 19.6941 17.5348 25.3662 16.8008 25.8222C16.3148 26.1242 15.5623 26.3417 14.7813 26.3417C14.4483 26.3417 14.1111 26.3018 13.7871 26.2128C12.6591 25.9018 10.7502 25.3226 9.99219 25.0526C9.26319 24.7926 8.99805 24.5435 8.99805 24.0975C8.99805 23.4635 9.89294 23.0259 10.8359 22.6249C11.8319 22.2019 29.0661 14.8833 30.4141 14.3983C31.0381 14.1723 31.6089 14.035 32.0879 14.035C32.0879 14.035 32.0879 14.035 32.0879 14.035Z"
          fill="#FFFFFF" transform="translate(2 2)"/>
  </g>
</svg>
